<svg version="1.2" xmlns="http://www.w3.org/2000/svg" viewBox="0 0 187 31" width="187" height="31">
	<title>MAGbank</title>
	<style>
		.s0 { fill: #ffffff } 
	</style>
	<path id="MAGbank" class="s0" aria-label="MAGbank"  d="m32.7 2l-13.7 17.5-7-17.5h-5.3l-5.6 28.1h6.1l3.4-16.8 5.7 13.8h2.9l10.7-13.7-3.3 16.7h6.1l5.6-28.1zm24.9 28.1h6.4l-6.8-28.1h-6.4l-18.2 28.1h7l3.6-6h13zm-11.3-11l6.6-10.8 2.3 10.8zm37.6 4.9c-1.5 0.7-3 1-4.6 1-5.4 0-8.2-2.8-8.2-7 0-6.2 4.2-10.9 10.8-10.9 3.1 0 5.5 0.9 7.3 3.1l4.7-3.8c-2.4-3.1-6.3-4.8-11.7-4.8-10.6 0-17.6 7.2-17.6 16.8 0 7.2 5.3 12.1 13.8 12.1 4.1 0 7.9-1.2 10.8-3.4l2.3-11.5h-5.9zm22.6-15c-3.6 0-6.6 1.5-8.6 4.1l2.5-12.7h-2l-5.9 29.7h1.9l1.1-5.4c1 3.5 3.8 5.5 8.2 5.5 6.9 0 11.9-5.3 11.9-12.5 0-5.4-3.7-8.7-9.1-8.7zm-2.7 19.4c-4.7 0-7.5-2.5-7.5-7 0-6.2 4.2-10.6 9.8-10.6 4.7 0 7.4 2.6 7.4 7 0 6.1-4.1 10.6-9.7 10.6zm35-19.2l-1 5.2c-1-3.4-3.9-5.4-8.3-5.4-6.8 0-11.8 5.3-11.8 12.5 0 5.4 3.6 8.7 9 8.7 3.8 0 6.8-1.6 8.8-4.2l-0.8 4.1h2l4.1-20.9zm-11.7 19.2c-4.6 0-7.4-2.5-7.4-7 0-6.1 4.2-10.6 9.8-10.6 4.7 0 7.4 2.6 7.4 7 0 6.2-4.1 10.6-9.8 10.6zm28.9-19.4c-3.5 0-6.6 1.3-8.6 4.1l0.8-3.9h-2l-4.1 20.9h2l2.3-11.4c1-5.2 4.4-7.9 9.1-7.9 3.9 0 5.9 1.9 5.9 5.2 0 0.6 0 1.2-0.2 2l-2.4 12.1h2l2.4-12.1c0.2-0.8 0.2-1.6 0.2-2.3 0-4.1-2.6-6.7-7.4-6.7zm32.2 0.2h-2.9l-15.5 12.1 4.1-20.9h-2l-5.9 29.7h2l1.2-6.2 6.5-5 6.8 11.2h2.3l-7.5-12.4z"/>
</svg>