<svg version="1.2" xmlns="http://www.w3.org/2000/svg" viewBox="0 0 303 50" width="299" height="49">
	<title>MAGbank</title>
	<style>
		.s0 { fill: #ffffff } 
	</style>
	<path id="MAGbank" class="s0" aria-label="MAGbank"  d="m51 3.5l-20.3 26-10.5-26h-10.4l-8.9 44.9h11.6l4.8-23.7 8.1 19.3h5.6l14.9-19.3-4.6 23.7h11.7l8.9-44.9zm40.2 44.9h12.6l-10.8-44.9h-12.5l-28.8 44.9h13.4l5.2-8.7h19.1zm-15.3-18.1l8.6-14.6 3 14.6zm58.3 7.3c-2 0.8-3.9 1.1-6 1.1-7.4 0-11.5-4-11.5-10 0-9 5.9-15.6 15.2-15.6 4.6 0 8 1.3 11 4.9l9.1-7.1c-4.1-5.4-10.6-8.3-19.6-8.3-17 0-28.5 11.3-28.5 26.9 0 11.7 8.9 19.8 22.6 19.8 6.8 0 13.1-2 17.7-5.4l3.7-18.9h-11.2zm37.3-23.1c-5.9 0-10.7 2.5-13.9 6.6l4.1-20.4h-3.3l-9.4 47.6h3.1l1.7-8.6c1.6 5.6 6.2 8.8 13.2 8.8 11 0 19-8.5 19-20 0-8.6-5.8-14-14.5-14zm-4.4 31.1c-7.6 0-11.9-4.1-11.9-11.2 0-9.9 6.6-17 15.7-17 7.5 0 11.8 4.1 11.8 11.2 0 9.9-6.6 17-15.6 17zm56.1-30.8l-1.7 8.3c-1.6-5.4-6.2-8.6-13.2-8.6-10.9 0-18.8 8.6-18.8 20.1 0 8.6 5.7 13.9 14.4 13.9 5.9 0 10.9-2.5 14.1-6.8l-1.3 6.6h3.1l6.6-33.5zm-18.7 30.8c-7.5 0-11.8-4.1-11.8-11.2 0-9.8 6.6-17 15.7-17 7.4 0 11.8 4.1 11.8 11.2 0 9.9-6.7 17-15.7 17zm46.3-31.1c-5.7 0-10.6 2.1-13.9 6.6l1.3-6.3h-3.1l-6.7 33.5h3.2l3.7-18.2c1.6-8.4 7-12.7 14.6-12.7 6.3 0 9.4 3.1 9.4 8.3 0 1 0 2-0.3 3.2l-3.8 19.4h3.2l3.8-19.4c0.3-1.3 0.4-2.5 0.4-3.7 0-6.6-4.2-10.7-11.8-10.7zm51.5 0.3h-4.7l-24.9 19.4 6.7-33.5h-3.2l-9.5 47.6h3.2l2-9.9 10.4-8 10.8 17.9h3.7l-12-19.8z"/>
</svg>